<?xml version="1.0" encoding="utf-8"?>
<svg xmlns="http://www.w3.org/2000/svg" fill="none" height="20" viewBox="0 0 101 20" width="101">
<path d="M28.835 19.6711L35.8562 0.198242H40.4364L47.4576 19.6711H43.3985L41.9174 15.3926H34.3751L32.8941 19.6711H28.835ZM35.4996 12.0465H40.7929L38.1326 4.33965L35.4996 12.0465Z" fill="#09090B"/>
<path d="M57.987 10.6478C57.7402 8.86504 56.5609 7.90511 55.0798 7.90511C52.968 7.90511 51.7612 9.5507 51.7612 12.4031C51.7612 15.2554 52.968 16.901 55.0798 16.901C56.6431 16.901 57.8225 15.9411 58.0693 14.0212L62.1559 14.1858C61.7445 17.7787 58.8647 20.0002 55.0798 20.0002C50.6093 20.0002 47.7021 17.0107 47.7021 12.4031C47.7021 7.7954 50.6093 4.80591 55.0798 4.80591C58.755 4.80591 61.6622 6.94518 62.0462 10.4284L57.987 10.6478Z" fill="#09090B"/>
<path d="M63.5516 5.13502H67.0896L67.1994 7.43886C67.9399 5.76584 69.3661 4.80591 71.2585 4.80591C73.3155 4.80591 74.7691 5.90297 75.3999 7.7954C76.1404 5.82069 77.6489 4.80591 79.6784 4.80591C82.6131 4.80591 84.5055 6.72576 84.5055 10.3186V19.6711H80.5561V11.6077C80.5561 9.19416 79.843 7.95996 78.4168 7.95996C76.6889 7.95996 75.7839 9.22158 75.7839 11.6077V19.6711H72.2733V11.6077C72.2733 9.19416 71.5602 7.95996 70.134 7.95996C68.4061 7.95996 67.501 9.24901 67.501 11.6077V19.6711H63.5516V5.13502Z" fill="#09090B"/>
<path d="M85.952 12.4031C85.952 7.7954 88.8593 4.80591 93.3024 4.80591C97.2518 4.80591 100.324 7.49371 100.324 12.6499L100.351 13.4453H90.066C90.2032 15.6668 91.3825 17.0107 93.3024 17.0107C94.5366 17.0107 95.6611 16.2976 96.1547 15.1457L100.132 15.4474C99.2539 18.2449 96.5936 20.0002 93.3024 20.0002C88.8593 20.0002 85.952 17.0107 85.952 12.4031ZM90.0935 10.9769H96.3193C96.0725 8.70048 94.7834 7.7954 93.3024 7.7954C91.5196 7.7954 90.3403 9.00217 90.0935 10.9769Z" fill="#09090B"/>
<g clip-path="url(#clip0_8080_5187)">
<path clip-rule="evenodd" d="M19.802 2.59671e-07V5.94059V19.802H13.8614V12.8746C13.8596 16.7008 10.7573 19.802 6.93069 19.802C3.10298 19.802 0 16.699 0 12.8713C0 9.04357 3.10298 5.94059 6.93069 5.94059C10.7573 5.94059 13.8596 9.0418 13.8614 12.868V5.94059H6.93069H0V2.59671e-07L13.8614 0L19.802 2.59671e-07Z" fill="#09090B" fill-rule="evenodd"/>
</g>
<defs>
<clipPath id="clip0_8080_5187">
<rect fill="white" height="19.802" width="19.802"/>
</clipPath>
</defs>
</svg>